<svg xmlns="http://www.w3.org/2000/svg" viewBox="0 0 300 178.6" xml:space="preserve"><path fill="#404040" d="M66.7 53.4s8.9-4 12.3-7.6c1.4 4.3 4.1 13 7.8 16.6-2.9.6-7.6 3.8-9.5 5.9C75.4 63 71 56 66.7 53.4zm49.1-25.7c-5.1-.3-8.6 0-15.5 1.8C99.7 17.7 91.7 7 91.7 7c.6-.2 12.5-5 20.2-3.8 3.1 4.5 3.9 17.7 3.9 24.5zm7.5 144.4c1.1 1 2.6 2 4.8 2.8H88.2c4-1.8 7.3-3.9 7.7-5.9.9-4.4 2.6-13.9 0-23-2.6-6.8-9.2-11.5-16.7-14.7-1.9.5-4.9 1.4-7.7 3 1.9 1.6 3.9 3 4.1 3.1 0 0-7.9 5.6-9.7 10.2-1.2-1.5-5.7-6-7.5-6.6.8-1.8 5.1-8.1 9.8-10.1.5.8 1.2 1.6 2.1 2.4 1.4-1.3 3.2-2.6 5.5-3.3-8.1-2.9-16.7-4.3-22.8-5-.1 2.1-.1 4.5 0 7.5-12.3-2-24.9 3.2-24.9 3.2-.1-.6-2.5-13.1.3-20.3 5.3-2 19 .2 26 1.7-.6 2-1 3.7-1.2 5.5 6-.9 11.4-1.1 16.3-.7-1.8-2.6-5.2-6-11-8.7-5.6-2.6-9.7-5.9-12.3-8.4-2.5 1.1-4.9 2.4-6.3 3.4-1.2-7.5-5.4-18-10.5-22.5 0 0 12.9-3.1 18.3-7.2.8 6.1 2.3 18.5 6.3 24.1-1.9 0-4.5.8-7 1.8 3.2 2.4 8.2 5.3 14.5 7-.6-2.4-.2-4.8.2-6.4-1 0-1.9.1-2.9.3-.3-3.1-.7-9.1.4-11.3 3.2-.9 8.5.7 8.7.8 0 0-2.8 5.2-2.5 10.6-1.4-.2-2.4-.3-3.4-.3-.1 2.6.6 5 1.5 6.8 7 1.5 11.6 7.3 13.8 10.9 4.3.8 8.2 2 11.5 3.1-.1-1.4-.3-4.1-1.4-6-.8.2-1.8.6-2.9 1-.9-5.3-4.9-9.7-4.9-9.7.2-.1 5-2.9 8.3-2.8 1.6 1.9 2.6 7.8 3 10.9-1.2.1-2.1.2-3.2.5 1.1 1.5 2.1 4.4 2.7 6.7 2.7 1 5 2 6.9 2.8 1.6-12.7-4.6-23-8.9-28.4-2.9 2.2-5.7 4.5-6.8 5.7-2.3-8.8-15.3-20.5-15.3-20.5.5-.3 11-5.7 14.5-10.2 8.2 4.6 14.5 16.9 15.6 20.3-1.4.3-3.9 1.8-6.4 3.6 1.9 1.4 4.2 3.4 6.6 6.2 1.1 1.3 2.1 2.8 3.1 4.4 1.2-1.1 2.9-2.8 4.1-5.1-1.8-.6-3.4-1.1-4.3-1.3 3.7-4.1 5.3-14.5 5.3-14.5.3.2 6.5 3.7 9.9 4 .3 5.6-3.8 12.9-5.1 14.5-.7-.6-2.4-1.5-4.2-2.2-.7 2.3-2 4.8-4.2 7.3 2.6 5.5 4.5 12.2 6.6 18.2 15.7-13.1 11.2-37.3 7.9-48.6-2.1 1.4-4.4 3.2-7.2 5.7-6.7-12.1-20.1-19.5-20.1-19.5.5-.5 9.7-11.3 18-13.8 5.4 3.3 13 16.8 16.6 24-2.2.9-4 1.8-5.8 2.8 3.8 5.4 6.5 12.1 8 19.1 2.1-2 4.5-3.8 6.8-5.3-.8-.7-1.6-1.2-2.2-1.4.8-1.8 5.1-8.1 9.9-10.1 1.6 2.7 7 6.3 7.3 6.5 0 0-7.9 5.6-9.7 10.3-.6-.8-2.2-2.5-3.9-4-3.6 4.4-5.9 10.1-7 13.3.4 5.8 0 11.4-1.3 16 3.7-2.3 8.7-3.7 14.2-4.5.6-5.3 5-9.4 8.8-11.9-1.5-1.9-3.1-3.4-5.1-5 5-5.2 15.1-14.7 20.6-16 6.4 4.4 11.4 16.1 11.6 16.7 0 0-13.4 2.7-22.4 11.3-1.4-2.3-2.5-4.1-3.7-5.6-3.4 4.1-4.5 8.3-4.8 10.2 6.7-.5 13.7-.2 19.9.6.6-3.1.9-6 .6-7.4 3.5-.4 17.3.1 24.9 5.6-2.6 5-3.1 16.9-3.1 17.4 0 0-16.1-6.9-25-5.2.6-1.5 1.5-4.8 2.2-8.2-12.7-.2-20.6 1.5-26.9 4.8 4.2.4 7 .9 8.8 1.5.6-1.3 1.1-2.6 1.1-3.3 1.9.3 9.2 2.6 12.5 6.6-2.1 2.3-4.1 8.5-4.2 8.8 0 0-7.5-6-12.6-6.5.6-.8 1.8-2.9 2.8-4.9-3.5-.6-8.1-.6-11.7-.4-2.3 1.5-4.5 3.2-6.7 5.1-2.7 2.3-4.6 5.4-6 8.8 1 1.5 1.7 3.7 1.7 6.1 0 3.9-1.7 7.2-3.9 8 .1 5.5 1.8 10.3 4.6 13.2zm-4.1-22.1c.2-2.3-.6-4.2-1.8-4.4-1.2-.1-2.4 1.7-2.6 4-.2 2.3.6 4.3 1.8 4.4 1.2.1 2.4-1.7 2.6-4zm-3.3-7.7c-2.8.5-4.4 4.5-3.6 9 .4-4.7 1.2-6.6 3.3-7.9 1.3-.8.3-1.1.3-1.1zM89.8 51.6C85 40 73.6 32 73.6 32c.5-.4 9.9-9.3 17.6-10.7 4.5 3.5 10.1 16.5 12.6 23.3-2.7.8-4.9 1.6-7.2 2.8.6 3.3.6 6.7 0 7.7-.2-2.4-.9-4.8-1.7-6.8-1.5.9-3.2 2-5.1 3.3zM31.3 95.4c-1.6 2.2-2.2 11.6-1.9 18-10.5-4.3-25.4-2.8-25.4-2.8 1.8-4.1 2.5-14.4 2-18 3.8 2.3 19.4 3.1 25.3 2.8zm39-20.9c-4.3.3-12.8 2.7-16.4 5.6-.6-7.9-8.4-19.7-12.2-25.7C49.4 54 63 47.2 63 47.2c-1.3 7.6 2.9 19.8 7.3 27.3zM134.7 37c-5.8-.8-8.7-.7-12.8.1-.7-5.9-1.6-17.4.4-21.6 6.1-1.8 16.3 1.1 16.8 1.2 0 0-5.2 10-4.4 20.3zm-71.6 6.8S55.9 33.4 49.8 31c1.9-1.5 7.9-7.3 8.8-9.7 2.3 1.1 10.6 6.7 13.1 13-3.5 2.1-8.4 9.1-8.6 9.5zm84 29.5c8-4.3 16.2-19.7 16.2-19.7.4.4 8.2 9.3 13.3 11.7-2.6 9-13 18-16 19.9-.6-1.2-2.3-3-4.4-4.8-2.9 3.3-6.4 8.1-7.5 13 1-5.6 3.3-10.6 5.9-14.4-2.8-2.5-6-4.8-7.5-5.7zm38.6 44c.7-3-3.1-13.1-6.3-19.8 13-.4 27.9-8.9 27.9-8.9 0 5.1 4 16.3 6.3 19.7-5.1-.5-21.8 5.9-27.9 9zm-13.2-36.6c7.1-4.6 16.1-13.5 18.4-20.8 0 0 8.9 11.9 15.5 15.6-5.9 3.6-18 10.5-21.9 17.2-2-4.1-8.4-10-12-12zm-34.2-34.6c2.6-5.3 8.1-19.9 7.6-24.4 3 1.9 12.8 5.4 17.2 5.4 0 0-7.3 13-7.6 24.4-5.7-2.8-14.6-6.1-17.2-5.4zm-5.8 26c-1.4 5.7-4.6 12.5-7.4 15.9 3-5.8 4.1-12.6 4.5-17-2.4-.8-4.8-1.4-6.6-1.4 3.9-5.8 4.8-18.2 5.4-24.3 5.5 3.9 18.5 6.5 18.5 6.5-5 4.6-8.7 15.3-9.7 22.8-1.1-.8-2.8-1.7-4.7-2.5zm-25.6-33.9c3 .3 9.9-1.4 12.1-2.5-.7 3 2.1 13.3 3.5 17.1-1.8-.6-8 1-12.1 2.5.5-7.7-3.5-17.1-3.5-17.1zm82.2 3.8s-7.2 5.4-10.2 13.1c-3.9-2.6-6-3.5-9.2-4.3 1.5-4.5 4.8-13.1 7.7-15.4 5.1.7 11.4 6.3 11.7 6.6zM31.5 75.4C29 68.8 17.9 60.8 17.9 60.8c.4-.2 8.1-5.3 10.4-9.1 6.7 2.9 12.6 11.9 13.8 14.4-2.6.9-9 7.2-10.6 9.3zm211.1-10.2h5.8v8.6h-5.8zm0 42.7h5.8v66.5h-5.8z"/><circle fill="#404040" cx="245.5" cy="66.2" r="4.7"/><path fill="#F2F2F2" stroke="#13B0D4" stroke-width="5" stroke-miterlimit="10" d="M283.8 104.9h-56.6c-1.9 0-3.5-1.8-3.5-4v-20c0-2.2 1.6-4 3.5-4h56.6c.9 0 1.8.4 2.4 1.2l8.8 10c1.4 1.6 1.4 4.2 0 5.7l-8.8 10c-.6.7-1.5 1.1-2.4 1.1z"/><path fill="none" d="M231.1 80.9h50.6V101h-50.6z"/><text transform="translate(236.56 100.469)" fill="#13B0D4" font-family="'RobotoCondensed-Bold'" font-size="26.154">404</text><path fill="none" stroke="#404040" stroke-width="2" stroke-miterlimit="10" d="M14.9 174.9h270.2"/></svg>